PathFileType	4	(X/Y/Z)	c:/Users/goper/Files/vsCode/490R/osim_files/C03/C03_Slow_05.trc
DataRate	CameraRate	NumFrames	NumMarkers	Units                	OrigDataRate	OrigDataStartFrame	OrigNumFrames
250.00	250.00	4	36	mm	250.0	1484	2966
                Frame#	Time	LPSIS			LASIS			LTH1			LTH2			LTH3			LTH4			LLFE			LMFE			LSH1			LSH2			LSH3			LSH4			LLMAL			LMMAL			LCAL			LMTP5			LTOE			LMTP1			RPSIS			RASIS			RTH1			RTH2			RTH3			RTH4			RLFE			RMFE			RSH1			RSH2			RSH3			RSH4			RLMAL			RMMAL			RCAL			RMTP1			RTOE			RMTP5		
		X1	Y1	Z1	X2	Y2	Z2	X3	Y3	Z3	X4	Y4	Z4	X5	Y5	Z5	X6	Y6	Z6	X7	Y7	Z7	X8	Y8	Z8	X9	Y9	Z9	X10	Y10	Z10	X11	Y11	Z11	X12	Y12	Z12	X13	Y13	Z13	X14	Y14	Z14	X15	Y15	Z15	X16	Y16	Z16	X17	Y17	Z17	X18	Y18	Z18	X19	Y19	Z19	X20	Y20	Z20	X21	Y21	Z21	X22	Y22	Z22	X23	Y23	Z23	X24	Y24	Z24	X25	Y25	Z25	X26	Y26	Z26	X27	Y27	Z27	X28	Y28	Z28	X29	Y29	Z29	X30	Y30	Z30	X31	Y31	Z31	X32	Y32	Z32	X33	Y33	Z33	X34	Y34	Z34	X35	Y35	Z35	X36	Y36	Z36

1484	5.93200	-384.84973	1003.52155	250.72337	-556.72021	942.66180	314.31384	-346.86981	632.14124	341.54510	-335.83533	571.43140	334.31165	-419.38403	613.25769	345.63229	-399.29797	555.31702	337.61530	-326.43054	481.62802	326.30640	-332.80380	472.87433	214.00349	-178.02751	352.56119	325.93954	-158.36153	309.60413	321.00046	-231.58946	325.01102	333.16165	-204.75716	285.80011	327.41388	-114.50591	147.24802	296.95059	-138.08044	152.22090	218.56818	-29.94895	124.25938	265.22775	-212.58566	48.00727	309.50937	-248.02299	52.35632	254.99124	-217.34094	51.70895	214.82710	-401.69617	991.54871	140.00284	-578.65747	953.72449	107.51183	-553.83356	567.14282	87.64821	-570.75244	508.64804	101.33549	-613.86981	585.85559	71.69377	-640.24469	530.47687	80.85683	-657.97400	468.70224	99.66270	-632.78558	476.10309	210.87764	-643.99615	267.31686	91.16827	-667.12653	224.75099	95.51214	-702.06177	287.59232	82.06424	-713.38409	245.30363	85.55759	-770.24164	100.21188	111.82519	-780.44574	110.31451	190.26205	-716.38770	55.06094	150.10814	-913.35260	94.18936	201.56544	-933.55725	117.25732	164.11304	-898.95947	67.57336	99.07268
1485	5.93600	-391.09622	1003.50562	250.36920	-563.47925	943.00958	313.42120	-353.73801	631.83569	341.12189	-342.77771	571.05914	334.04456	-426.27707	613.00275	345.27374	-406.25235	555.00812	337.30820	-333.12955	481.41138	326.29700	-339.39661	472.47458	214.23897	-183.23543	354.11984	326.06241	-163.03473	311.41824	321.15045	-236.37408	325.94250	333.31122	-209.20348	287.04416	327.57394	-117.10919	149.25714	297.39041	-140.86507	154.00095	219.05432	-32.23816	127.83231	265.23041	-213.01262	47.93270	309.72531	-248.77863	51.91703	255.18790	-218.01154	51.64761	214.93999	-408.01013	991.84772	139.46230	-584.80695	954.24976	106.80876	-558.45813	567.51141	86.91979	-574.94415	509.06290	100.39551	-618.81439	585.99060	71.60806	-644.72760	530.37079	80.79857	-661.92444	468.38434	98.91476	-635.60968	475.32233	210.33531	-647.71954	267.34750	90.84573	-670.53302	224.41827	95.34177	-705.75604	287.16553	81.71239	-716.73212	244.78134	85.31329	-771.92365	99.57366	111.73129	-782.39288	109.28582	190.40137	-717.41907	55.55813	150.19196	-915.46844	91.65295	201.89864	-935.70209	113.97457	164.11765	-900.14252	64.81694	99.03765
1486	5.94000	-397.33145	1003.61395	250.07039	-569.81403	943.04248	312.85867	-360.69415	631.60077	340.73663	-349.75510	570.74353	333.78415	-433.23105	612.84595	344.89706	-413.23813	554.85767	337.10339	-339.88654	481.22144	326.39426	-346.36823	472.03146	214.37498	-188.45470	355.86514	326.11639	-167.89699	313.34610	321.21487	-241.26752	326.95547	333.43051	-213.58823	288.37601	327.72870	-119.79267	151.39151	297.86111	-144.33914	155.46284	220.15102	-34.79208	131.59007	265.16812	-213.45180	47.88912	309.90189	-249.45490	51.58062	255.24022	-218.64340	51.59803	215.02922	-414.40805	992.27515	138.97575	-590.90051	954.75708	106.25041	-563.07672	568.04242	86.05722	-579.23090	509.24924	99.62147	-623.70734	586.13696	71.37118	-649.22803	530.38232	80.56133	-666.24634	468.30368	98.30986	-638.56158	474.63400	209.74448	-651.21576	267.29993	90.46169	-673.66064	224.26007	95.11579	-709.51660	286.73328	81.36155	-720.12817	244.23975	85.07887	-773.68414	98.86830	111.54131	-784.35809	108.48523	190.34953	-718.44135	55.93864	150.27142	-916.55475	88.60988	201.56129	-937.75989	110.78751	163.90166	-901.23523	62.13196	98.94656
1487	5.94400	-403.54364	1003.76129	249.73518	-576.19434	943.16235	312.14865	-367.70764	631.37811	340.33121	-356.87421	570.45142	333.54321	-439.76636	612.94043	344.76093	-420.40747	554.62311	336.88516	-346.87601	480.96777	326.40775	-353.61307	471.45544	214.54527	-193.84329	357.39871	325.92184	-173.31105	315.24078	321.06754	-246.22318	328.05112	333.51968	-218.13319	289.76843	327.85031	-122.67764	153.56604	298.20731	-147.58084	157.29141	220.76727	-37.53187	135.31999	265.14502	-213.91885	47.82872	310.04364	-248.53867	51.05885	255.70972	-219.13918	51.54311	215.06250	-421.84885	992.32465	138.15742	-597.09851	955.23370	105.65121	-567.68658	568.54681	85.13187	-583.40405	509.61990	98.58783	-628.63757	586.31036	70.88000	-653.61969	530.41101	79.97763	-670.78186	468.13934	97.80372	-641.43109	474.10617	209.05675	-654.47266	267.35022	89.83528	-676.85944	224.13713	94.61230	-713.01520	286.33652	81.01696	-723.31165	243.74608	84.77116	-775.19421	98.13211	111.36240	-786.07623	107.58952	190.11421	-719.25073	56.38382	150.23343	-918.16614	85.77782	201.38321	-939.66260	107.75865	163.73174	-902.33948	59.51347	98.82340
